<svg version="1.1" viewBox="0.0 0.0 1040.0 643.0" fill="none" stroke="none" stroke-linecap="square" stroke-miterlimit="10" width="1040" height="643" xmlns:xlink="http://www.w3.org/1999/xlink" xmlns="http://www.w3.org/2000/svg"><path fill="#ffffff75" d="M0 0L1040.0 0L1040.0 643.0L0 643.0L0 0Z" fill-rule="nonzero"/><path stroke="#333333" stroke-width="1.0" stroke-linecap="butt" d="M66.5 558.5L1007.5 558.5" fill-rule="nonzero"/><path stroke="#cccccc" stroke-width="1.0" stroke-linecap="butt" d="M66.5 437.5L1007.5 437.5" fill-rule="nonzero"/><path stroke="#cccccc" stroke-width="1.0" stroke-linecap="butt" d="M66.5 316.5L1007.5 316.5" fill-rule="nonzero"/><path stroke="#cccccc" stroke-width="1.0" stroke-linecap="butt" d="M66.5 195.5L1007.5 195.5" fill-rule="nonzero"/><path stroke="#cccccc" stroke-width="1.0" stroke-linecap="butt" d="M66.5 74.5L1007.5 74.5" fill-rule="nonzero"/><clipPath id="id_0"><path d="M66.15 74.583336L1007.85 74.583336L1007.85 558.85L66.15 558.85L66.15 74.583336Z" clip-rule="nonzero"/></clipPath><path stroke="#000000" stroke-width="2.0" stroke-linecap="butt" stroke-opacity="0.0" clip-path="url(#id_0)" d="M141.0 559.0L106.0 559.0L106.0 558.5C106.0 558.2239 106.223854 558.0 106.5 558.0L140.5 558.0C140.77614 558.0 141.0 558.2239 141.0 558.5Z" fill-rule="nonzero"/><path fill="#4285f4" clip-path="url(#id_0)" d="M141.0 559.0L106.0 559.0L106.0 558.5C106.0 558.2239 106.223854 558.0 106.5 558.0L140.5 558.0C140.77614 558.0 141.0 558.2239 141.0 558.5Z" fill-rule="nonzero"/><path stroke="#000000" stroke-width="2.0" stroke-linecap="butt" stroke-opacity="0.0" clip-path="url(#id_0)" d="M254.0 559.0L219.0 559.0L219.0 554.0C219.0 552.89545 219.89543 552.0 221.0 552.0L252.0 552.0C253.10457 552.0 254.0 552.89545 254.0 554.0Z" fill-rule="nonzero"/><path fill="#4285f4" clip-path="url(#id_0)" d="M254.0 559.0L219.0 559.0L219.0 554.0C219.0 552.89545 219.89543 552.0 221.0 552.0L252.0 552.0C253.10457 552.0 254.0 552.89545 254.0 554.0Z" fill-rule="nonzero"/><path stroke="#000000" stroke-width="2.0" stroke-linecap="butt" stroke-opacity="0.0" clip-path="url(#id_0)" d="M367.0 559.0L332.0 559.0L332.0 537.0C332.0 535.89545 332.89542 535.0 334.0 535.0L365.0 535.0C366.10458 535.0 367.0 535.89545 367.0 537.0Z" fill-rule="nonzero"/><path fill="#4285f4" clip-path="url(#id_0)" d="M367.0 559.0L332.0 559.0L332.0 537.0C332.0 535.89545 332.89542 535.0 334.0 535.0L365.0 535.0C366.10458 535.0 367.0 535.89545 367.0 537.0Z" fill-rule="nonzero"/><path stroke="#000000" stroke-width="2.0" stroke-linecap="butt" stroke-opacity="0.0" clip-path="url(#id_0)" d="M480.0 559.0L445.0 559.0L445.0 517.0C445.0 515.89545 445.89542 515.0 447.0 515.0L478.0 515.0C479.10458 515.0 480.0 515.89545 480.0 517.0Z" fill-rule="nonzero"/><path fill="#4285f4" clip-path="url(#id_0)" d="M480.0 559.0L445.0 559.0L445.0 517.0C445.0 515.89545 445.89542 515.0 447.0 515.0L478.0 515.0C479.10458 515.0 480.0 515.89545 480.0 517.0Z" fill-rule="nonzero"/><path stroke="#000000" stroke-width="2.0" stroke-linecap="butt" stroke-opacity="0.0" clip-path="url(#id_0)" d="M592.0 559.0L557.0 559.0L557.0 483.0C557.0 481.89542 557.89545 481.0 559.0 481.0L590.0 481.0C591.10455 481.0 592.0 481.89542 592.0 483.0Z" fill-rule="nonzero"/><path fill="#4285f4" clip-path="url(#id_0)" d="M592.0 559.0L557.0 559.0L557.0 483.0C557.0 481.89542 557.89545 481.0 559.0 481.0L590.0 481.0C591.10455 481.0 592.0 481.89542 592.0 483.0Z" fill-rule="nonzero"/><path stroke="#000000" stroke-width="2.0" stroke-linecap="butt" stroke-opacity="0.0" clip-path="url(#id_0)" d="M705.0 559.0L670.0 559.0L670.0 416.0C670.0 414.89542 670.89545 414.0 672.0 414.0L703.0 414.0C704.10455 414.0 705.0 414.89542 705.0 416.0Z" fill-rule="nonzero"/><path fill="#4285f4" clip-path="url(#id_0)" d="M705.0 559.0L670.0 559.0L670.0 416.0C670.0 414.89542 670.89545 414.0 672.0 414.0L703.0 414.0C704.10455 414.0 705.0 414.89542 705.0 416.0Z" fill-rule="nonzero"/><path stroke="#000000" stroke-width="2.0" stroke-linecap="butt" stroke-opacity="0.0" clip-path="url(#id_0)" d="M818.0 559.0L783.0 559.0L783.0 355.0C783.0 353.89542 783.89545 353.0 785.0 353.0L816.0 353.0C817.10455 353.0 818.0 353.89542 818.0 355.0Z" fill-rule="nonzero"/><path fill="#4285f4" clip-path="url(#id_0)" d="M818.0 559.0L783.0 559.0L783.0 355.0C783.0 353.89542 783.89545 353.0 785.0 353.0L816.0 353.0C817.10455 353.0 818.0 353.89542 818.0 355.0Z" fill-rule="nonzero"/><path stroke="#000000" stroke-width="2.0" stroke-linecap="butt" stroke-opacity="0.0" clip-path="url(#id_0)" d="M931.0 559.0L896.0 559.0L896.0 270.0C896.0 268.89542 896.89545 268.0 898.0 268.0L929.0 268.0C930.10455 268.0 931.0 268.89542 931.0 270.0Z" fill-rule="nonzero"/><path fill="#4285f4" clip-path="url(#id_0)" d="M931.0 559.0L896.0 559.0L896.0 270.0C896.0 268.89542 896.89545 268.0 898.0 268.0L929.0 268.0C930.10455 268.0 931.0 268.89542 931.0 270.0Z" fill-rule="nonzero"/><path stroke="#000000" stroke-width="2.0" stroke-linecap="butt" stroke-opacity="0.0" clip-path="url(#id_0)" d="M178.0 559.0L143.0 559.0L143.0 488.0C143.0 486.89542 143.89543 486.0 145.0 486.0L176.0 486.0C177.10457 486.0 178.0 486.89542 178.0 488.0Z" fill-rule="nonzero"/><path fill="#fbbc04" clip-path="url(#id_0)" d="M178.0 559.0L143.0 559.0L143.0 488.0C143.0 486.89542 143.89543 486.0 145.0 486.0L176.0 486.0C177.10457 486.0 178.0 486.89542 178.0 488.0Z" fill-rule="nonzero"/><path stroke="#000000" stroke-width="2.0" stroke-linecap="butt" stroke-opacity="0.0" clip-path="url(#id_0)" d="M291.0 559.0L256.0 559.0L256.0 440.0C256.0 438.89542 256.89542 438.0 258.0 438.0L289.0 438.0C290.10458 438.0 291.0 438.89542 291.0 440.0Z" fill-rule="nonzero"/><path fill="#fbbc04" clip-path="url(#id_0)" d="M291.0 559.0L256.0 559.0L256.0 440.0C256.0 438.89542 256.89542 438.0 258.0 438.0L289.0 438.0C290.10458 438.0 291.0 438.89542 291.0 440.0Z" fill-rule="nonzero"/><path stroke="#000000" stroke-width="2.0" stroke-linecap="butt" stroke-opacity="0.0" clip-path="url(#id_0)" d="M404.0 559.0L369.0 559.0L369.0 420.0C369.0 418.89542 369.89542 418.0 371.0 418.0L402.0 418.0C403.10458 418.0 404.0 418.89542 404.0 420.0Z" fill-rule="nonzero"/><path fill="#fbbc04" clip-path="url(#id_0)" d="M404.0 559.0L369.0 559.0L369.0 420.0C369.0 418.89542 369.89542 418.0 371.0 418.0L402.0 418.0C403.10458 418.0 404.0 418.89542 404.0 420.0Z" fill-rule="nonzero"/><path stroke="#000000" stroke-width="2.0" stroke-linecap="butt" stroke-opacity="0.0" clip-path="url(#id_0)" d="M517.0 559.0L482.0 559.0L482.0 408.0C482.0 406.89542 482.89542 406.0 484.0 406.0L515.0 406.0C516.10455 406.0 517.0 406.89542 517.0 408.0Z" fill-rule="nonzero"/><path fill="#fbbc04" clip-path="url(#id_0)" d="M517.0 559.0L482.0 559.0L482.0 408.0C482.0 406.89542 482.89542 406.0 484.0 406.0L515.0 406.0C516.10455 406.0 517.0 406.89542 517.0 408.0Z" fill-rule="nonzero"/><path stroke="#000000" stroke-width="2.0" stroke-linecap="butt" stroke-opacity="0.0" clip-path="url(#id_0)" d="M629.0 559.0L594.0 559.0L594.0 396.0C594.0 394.89542 594.89545 394.0 596.0 394.0L627.0 394.0C628.10455 394.0 629.0 394.89542 629.0 396.0Z" fill-rule="nonzero"/><path fill="#fbbc04" clip-path="url(#id_0)" d="M629.0 559.0L594.0 559.0L594.0 396.0C594.0 394.89542 594.89545 394.0 596.0 394.0L627.0 394.0C628.10455 394.0 629.0 394.89542 629.0 396.0Z" fill-rule="nonzero"/><path stroke="#000000" stroke-width="2.0" stroke-linecap="butt" stroke-opacity="0.0" clip-path="url(#id_0)" d="M742.0 559.0L707.0 559.0L707.0 391.0C707.0 389.89542 707.89545 389.0 709.0 389.0L740.0 389.0C741.10455 389.0 742.0 389.89542 742.0 391.0Z" fill-rule="nonzero"/><path fill="#fbbc04" clip-path="url(#id_0)" d="M742.0 559.0L707.0 559.0L707.0 391.0C707.0 389.89542 707.89545 389.0 709.0 389.0L740.0 389.0C741.10455 389.0 742.0 389.89542 742.0 391.0Z" fill-rule="nonzero"/><path stroke="#000000" stroke-width="2.0" stroke-linecap="butt" stroke-opacity="0.0" clip-path="url(#id_0)" d="M855.0 559.0L820.0 559.0L820.0 389.0C820.0 387.89542 820.89545 387.0 822.0 387.0L853.0 387.0C854.10455 387.0 855.0 387.89542 855.0 389.0Z" fill-rule="nonzero"/><path fill="#fbbc04" clip-path="url(#id_0)" d="M855.0 559.0L820.0 559.0L820.0 389.0C820.0 387.89542 820.89545 387.0 822.0 387.0L853.0 387.0C854.10455 387.0 855.0 387.89542 855.0 389.0Z" fill-rule="nonzero"/><path stroke="#000000" stroke-width="2.0" stroke-linecap="butt" stroke-opacity="0.0" clip-path="url(#id_0)" d="M968.0 559.0L933.0 559.0L933.0 388.0C933.0 386.89542 933.89545 386.0 935.0 386.0L966.0 386.0C967.10455 386.0 968.0 386.89542 968.0 388.0Z" fill-rule="nonzero"/><path fill="#fbbc04" clip-path="url(#id_0)" d="M968.0 559.0L933.0 559.0L933.0 388.0C933.0 386.89542 933.89545 386.0 935.0 386.0L966.0 386.0C967.10455 386.0 968.0 386.89542 968.0 388.0Z" fill-rule="nonzero"/><path stroke="#ea4335" stroke-width="4.0" stroke-linecap="butt" clip-path="url(#id_0)" d="M142.27545 554.81445L255.0539 544.322L367.83234 517.10284L480.61078 489.66904L593.3892 444.9049L706.16766 351.30713L818.9461 268.97208L931.72455 152.47238" fill-rule="nonzero"/><path fill="#000000" fill-opacity="0.0" clip-path="url(#id_0)" d="M145.27545 554.81445C145.27545 556.4713 143.9323 557.81445 142.27545 557.81445C140.61859 557.81445 139.27545 556.4713 139.27545 554.81445C139.27545 553.1576 140.61859 551.81445 142.27545 551.81445C143.9323 551.81445 145.27545 553.1576 145.27545 554.81445Z" fill-rule="nonzero"/><path fill="#000000" fill-opacity="0.0" clip-path="url(#id_0)" d="M258.0539 544.322C258.0539 545.9789 256.71075 547.322 255.0539 547.322C253.39703 547.322 252.0539 545.9789 252.0539 544.322C252.0539 542.66516 253.39703 541.322 255.0539 541.322C256.71075 541.322 258.0539 542.66516 258.0539 544.322Z" fill-rule="nonzero"/><path fill="#000000" fill-opacity="0.0" clip-path="url(#id_0)" d="M370.83234 517.10284C370.83234 518.7597 369.4892 520.10284 367.83234 520.10284C366.17548 520.10284 364.83234 518.7597 364.83234 517.10284C364.83234 515.44604 366.17548 514.10284 367.83234 514.10284C369.4892 514.10284 370.83234 515.44604 370.83234 517.10284Z" fill-rule="nonzero"/><path fill="#000000" fill-opacity="0.0" clip-path="url(#id_0)" d="M483.61078 489.66904C483.61078 491.3259 482.26764 492.66904 480.61078 492.66904C478.95392 492.66904 477.61078 491.3259 477.61078 489.66904C477.61078 488.0122 478.95392 486.66904 480.61078 486.66904C482.26764 486.66904 483.61078 488.0122 483.61078 489.66904Z" fill-rule="nonzero"/><path fill="#000000" fill-opacity="0.0" clip-path="url(#id_0)" d="M596.3892 444.9049C596.3892 446.56177 595.0461 447.9049 593.3892 447.9049C591.73236 447.9049 590.3892 446.56177 590.3892 444.9049C590.3892 443.24805 591.73236 441.9049 593.3892 441.9049C595.0461 441.9049 596.3892 443.24805 596.3892 444.9049Z" fill-rule="nonzero"/><path fill="#000000" fill-opacity="0.0" clip-path="url(#id_0)" d="M709.16766 351.30713C709.16766 352.964 707.8245 354.30713 706.16766 354.30713C704.5108 354.30713 703.16766 352.964 703.16766 351.30713C703.16766 349.6503 704.5108 348.30713 706.16766 348.30713C707.8245 348.30713 709.16766 349.6503 709.16766 351.30713Z" fill-rule="nonzero"/><path fill="#000000" fill-opacity="0.0" clip-path="url(#id_0)" d="M821.9461 268.97208C821.9461 270.6289 820.60297 271.97208 818.9461 271.97208C817.28925 271.97208 815.9461 270.6289 815.9461 268.97208C815.9461 267.31522 817.28925 265.97208 818.9461 265.97208C820.60297 265.97208 821.9461 267.31522 821.9461 268.97208Z" fill-rule="nonzero"/><path fill="#000000" fill-opacity="0.0" clip-path="url(#id_0)" d="M934.72455 152.47238C934.72455 154.12923 933.3814 155.47238 931.72455 155.47238C930.0677 155.47238 928.72455 154.12923 928.72455 152.47238C928.72455 150.81552 930.0677 149.47238 931.72455 149.47238C933.3814 149.47238 934.72455 150.81552 934.72455 152.47238Z" fill-rule="nonzero"/><path fill="#000000" d="M514.4375 607.85L514.4375 599.2562L518.25 599.2562Q519.40625 599.2562 520.0 599.4906Q520.59375 599.725 520.9531 600.3187Q521.3125 600.89685 521.3125 601.6Q521.3125 602.52185 520.71875 603.14685Q520.125 603.77185 518.8906 603.9437Q519.34375 604.1625 519.5781 604.3656Q520.0781 604.8187 520.5156 605.5062L522.0156 607.85L520.5781 607.85L519.4531 606.0687Q518.9531 605.2875 518.625 604.8812Q518.3125 604.475 518.0469 604.3187Q517.7969 604.14685 517.53125 604.0687Q517.34375 604.0375 516.90625 604.0375L515.5781 604.0375L515.5781 607.85L514.4375 607.85ZM515.5781 603.0531L518.03125 603.0531Q518.7969 603.0531 519.2344 602.89685Q519.6875 602.725 519.90625 602.3812Q520.1406 602.02185 520.1406 601.6Q520.1406 600.9906 519.6875 600.6Q519.25 600.20935 518.2969 600.20935L515.5781 600.20935L515.5781 603.0531ZM527.5469 605.85L528.6406 605.975Q528.3906 606.9281 527.6875 607.45935Q526.9844 607.9906 525.90625 607.9906Q524.5469 607.9906 523.7344 607.14685Q522.9375 606.3031 522.9375 604.7875Q522.9375 603.225 523.75 602.3656Q524.5625 601.4906 525.84375 601.4906Q527.09375 601.4906 527.875 602.33435Q528.6719 603.1781 528.6719 604.725Q528.6719 604.8187 528.6719 605.0062L524.03125 605.0062Q524.09375 606.0375 524.6094 606.58435Q525.125 607.1156 525.90625 607.1156Q526.4844 607.1156 526.8906 606.8187Q527.3125 606.5062 527.5469 605.85ZM524.09375 604.14685L527.5625 604.14685Q527.5 603.35 527.1719 602.95935Q526.65625 602.35 525.8594 602.35Q525.125 602.35 524.625 602.83435Q524.1406 603.3187 524.09375 604.14685ZM530.2656 607.85L530.2656 599.2562L531.3281 599.2562L531.3281 607.85L530.2656 607.85ZM537.5469 605.85L538.6406 605.975Q538.3906 606.9281 537.6875 607.45935Q536.9844 607.9906 535.90625 607.9906Q534.5469 607.9906 533.7344 607.14685Q532.9375 606.3031 532.9375 604.7875Q532.9375 603.225 533.75 602.3656Q534.5625 601.4906 535.84375 601.4906Q537.09375 601.4906 537.875 602.33435Q538.6719 603.1781 538.6719 604.725Q538.6719 604.8187 538.6719 605.0062L534.03125 605.0062Q534.09375 606.0375 534.6094 606.58435Q535.125 607.1156 535.90625 607.1156Q536.4844 607.1156 536.8906 606.8187Q537.3125 606.5062 537.5469 605.85ZM534.09375 604.14685L537.5625 604.14685Q537.5 603.35 537.1719 602.95935Q536.65625 602.35 535.8594 602.35Q535.125 602.35 534.625 602.83435Q534.1406 603.3187 534.09375 604.14685ZM544.3594 607.08435Q543.7656 607.58435 543.21875 607.7875Q542.6875 607.9906 542.0625 607.9906Q541.03125 607.9906 540.4844 607.4906Q539.9375 606.9906 539.9375 606.20935Q539.9375 605.7562 540.1406 605.3812Q540.34375 604.9906 540.6875 604.77185Q541.03125 604.5375 541.4531 604.4281Q541.75 604.33435 542.3906 604.2562Q543.65625 604.1156 544.2656 603.89685Q544.2656 603.6781 544.2656 603.6312Q544.2656 602.975 543.96875 602.70935Q543.5625 602.3656 542.7656 602.3656Q542.03125 602.3656 541.6719 602.6312Q541.3125 602.8812 541.1406 603.5375L540.1094 603.39685Q540.25 602.7406 540.5781 602.33435Q540.90625 601.9281 541.5156 601.70935Q542.125 601.4906 542.9219 601.4906Q543.71875 601.4906 544.21875 601.6781Q544.71875 601.8656 544.9531 602.14685Q545.1875 602.4281 545.28125 602.8656Q545.3281 603.1312 545.3281 603.83435L545.3281 605.2406Q545.3281 606.70935 545.3906 607.1Q545.46875 607.4906 545.6719 607.85L544.5625 607.85Q544.40625 607.52185 544.3594 607.08435ZM544.2656 604.725Q543.6875 604.95935 542.5469 605.1312Q541.8906 605.225 541.625 605.35Q541.3594 605.45935 541.2031 605.6781Q541.0625 605.89685 541.0625 606.1781Q541.0625 606.6 541.375 606.8812Q541.7031 607.1625 542.3125 607.1625Q542.9219 607.1625 543.3906 606.89685Q543.875 606.6312 544.09375 606.1625Q544.2656 605.8031 544.2656 605.1156L544.2656 604.725ZM546.875 605.9906L547.90625 605.83435Q548.0 606.45935 548.3906 606.7875Q548.7969 607.1156 549.53125 607.1156Q550.25 607.1156 550.59375 606.83435Q550.9531 606.5375 550.9531 606.1312Q550.9531 605.77185 550.6406 605.5687Q550.4219 605.4281 549.5625 605.20935Q548.40625 604.9125 547.9531 604.70935Q547.5156 604.4906 547.28125 604.1156Q547.0469 603.7406 547.0469 603.27185Q547.0469 602.8656 547.2344 602.5062Q547.4219 602.14685 547.75 601.9125Q548.0 601.7406 548.4219 601.6156Q548.84375 601.4906 549.34375 601.4906Q550.0625 601.4906 550.6094 601.70935Q551.1719 601.9125 551.4375 602.27185Q551.7031 602.6312 551.7969 603.225L550.7656 603.3656Q550.7031 602.89685 550.3594 602.6312Q550.03125 602.35 549.40625 602.35Q548.6875 602.35 548.375 602.6Q548.0625 602.83435 548.0625 603.1625Q548.0625 603.3656 548.1875 603.52185Q548.3281 603.6937 548.59375 603.8031Q548.75 603.8656 549.53125 604.0687Q550.65625 604.3812 551.09375 604.5687Q551.53125 604.7562 551.78125 605.1156Q552.03125 605.475 552.03125 606.02185Q552.03125 606.5531 551.71875 607.02185Q551.4219 607.475 550.84375 607.7406Q550.2656 607.9906 549.53125 607.9906Q548.3125 607.9906 547.6719 607.4906Q547.0469 606.975 546.875 605.9906ZM558.5469 605.85L559.6406 605.975Q559.3906 606.9281 558.6875 607.45935Q557.9844 607.9906 556.90625 607.9906Q555.5469 607.9906 554.7344 607.14685Q553.9375 606.3031 553.9375 604.7875Q553.9375 603.225 554.75 602.3656Q555.5625 601.4906 556.84375 601.4906Q558.09375 601.4906 558.875 602.33435Q559.6719 603.1781 559.6719 604.725Q559.6719 604.8187 559.6719 605.0062L555.03125 605.0062Q555.09375 606.0375 555.6094 606.58435Q556.125 607.1156 556.90625 607.1156Q557.4844 607.1156 557.8906 606.8187Q558.3125 606.5062 558.5469 605.85ZM555.09375 604.14685L558.5625 604.14685Q558.5 603.35 558.1719 602.95935Q557.65625 602.35 556.8594 602.35Q556.125 602.35 555.625 602.83435Q555.1406 603.3187 555.09375 604.14685Z" fill-rule="nonzero"/><path fill="#000000" d="M53.65 558.6156Q53.65 557.08435 53.9625 556.1625Q54.275 555.225 54.884377 554.725Q55.509377 554.225 56.446877 554.225Q57.134377 554.225 57.65 554.5062Q58.18125 554.7875 58.525 555.3187Q58.86875 555.83435 59.05625 556.58435Q59.24375 557.33435 59.24375 558.6156Q59.24375 560.1312 58.93125 561.0531Q58.634377 561.975 58.009377 562.4906Q57.4 562.9906 56.446877 562.9906Q55.2125 562.9906 54.49375 562.1Q53.65 561.0375 53.65 558.6156ZM54.728127 558.6156Q54.728127 560.725 55.228127 561.4281Q55.728127 562.1312 56.446877 562.1312Q57.18125 562.1312 57.665627 561.4281Q58.165627 560.725 58.165627 558.6156Q58.165627 556.4906 57.665627 555.8031Q57.18125 555.1 56.43125 555.1Q55.7125 555.1 55.275 555.70935Q54.728127 556.4906 54.728127 558.6156Z" fill-rule="nonzero"/><path fill="#000000" d="M39.65 439.53333L40.759377 439.43958Q40.884377 440.25208 41.321877 440.65833Q41.775 441.06458 42.415627 441.06458Q43.165627 441.06458 43.696877 440.48645Q44.228127 439.90833 44.228127 438.97083Q44.228127 438.06458 43.7125 437.54895Q43.2125 437.0177 42.384377 437.0177Q41.884377 437.0177 41.4625 437.25208Q41.05625 437.48645 40.821877 437.84583L39.8375 437.72083L40.665627 433.31458L44.946877 433.31458L44.946877 434.31458L41.509377 434.31458L41.05625 436.62708Q41.821877 436.0802 42.665627 436.0802Q43.790627 436.0802 44.55625 436.86145Q45.3375 437.6427 45.3375 438.87708Q45.3375 440.03333 44.665627 440.8927Q43.8375 441.92395 42.415627 441.92395Q41.24375 441.92395 40.49375 441.2677Q39.759377 440.61145 39.65 439.53333ZM46.65 437.54895Q46.65 436.0177 46.9625 435.09583Q47.275 434.15833 47.884377 433.65833Q48.509377 433.15833 49.446877 433.15833Q50.134377 433.15833 50.65 433.43958Q51.18125 433.72083 51.525 434.25208Q51.86875 434.7677 52.05625 435.5177Q52.24375 436.2677 52.24375 437.54895Q52.24375 439.06458 51.93125 439.98645Q51.634377 440.90833 51.009377 441.42395Q50.4 441.92395 49.446877 441.92395Q48.2125 441.92395 47.49375 441.03333Q46.65 439.97083 46.65 437.54895ZM47.728127 437.54895Q47.728127 439.65833 48.228127 440.36145Q48.728127 441.06458 49.446877 441.06458Q50.18125 441.06458 50.665627 440.36145Q51.165627 439.65833 51.165627 437.54895Q51.165627 435.42395 50.665627 434.73645Q50.18125 434.03333 49.43125 434.03333Q48.7125 434.03333 48.275 434.6427Q47.728127 435.42395 47.728127 437.54895ZM53.65 437.54895Q53.65 436.0177 53.9625 435.09583Q54.275 434.15833 54.884377 433.65833Q55.509377 433.15833 56.446877 433.15833Q57.134377 433.15833 57.65 433.43958Q58.18125 433.72083 58.525 434.25208Q58.86875 434.7677 59.05625 435.5177Q59.24375 436.2677 59.24375 437.54895Q59.24375 439.06458 58.93125 439.98645Q58.634377 440.90833 58.009377 441.42395Q57.4 441.92395 56.446877 441.92395Q55.2125 441.92395 54.49375 441.03333Q53.65 439.97083 53.65 437.54895ZM54.728127 437.54895Q54.728127 439.65833 55.228127 440.36145Q55.728127 441.06458 56.446877 441.06458Q57.18125 441.06458 57.665627 440.36145Q58.165627 439.65833 58.165627 437.54895Q58.165627 435.42395 57.665627 434.73645Q57.18125 434.03333 56.43125 434.03333Q55.7125 434.03333 55.275 434.6427Q54.728127 435.42395 54.728127 437.54895Z" fill-rule="nonzero"/><path fill="#000000" d="M36.61875 320.71667L35.571877 320.71667L35.571877 313.99792Q35.18125 314.3573 34.55625 314.7323Q33.946877 315.09167 33.4625 315.26355L33.4625 314.24792Q34.3375 313.82605 34.99375 313.24792Q35.665627 312.65417 35.946877 312.09167L36.61875 312.09167L36.61875 320.71667ZM39.65 316.4823Q39.65 314.95105 39.9625 314.02917Q40.275 313.09167 40.884377 312.59167Q41.509377 312.09167 42.446877 312.09167Q43.134377 312.09167 43.65 312.37292Q44.18125 312.65417 44.525 313.18542Q44.86875 313.70105 45.05625 314.45105Q45.24375 315.20105 45.24375 316.4823Q45.24375 317.99792 44.93125 318.9198Q44.634377 319.84167 44.009377 320.3573Q43.4 320.8573 42.446877 320.8573Q41.2125 320.8573 40.49375 319.96667Q39.65 318.90417 39.65 316.4823ZM40.728127 316.4823Q40.728127 318.59167 41.228127 319.2948Q41.728127 319.99792 42.446877 319.99792Q43.18125 319.99792 43.665627 319.2948Q44.165627 318.59167 44.165627 316.4823Q44.165627 314.3573 43.665627 313.6698Q43.18125 312.96667 42.43125 312.96667Q41.7125 312.96667 41.275 313.57605Q40.728127 314.3573 40.728127 316.4823ZM46.65 316.4823Q46.65 314.95105 46.9625 314.02917Q47.275 313.09167 47.884377 312.59167Q48.509377 312.09167 49.446877 312.09167Q50.134377 312.09167 50.65 312.37292Q51.18125 312.65417 51.525 313.18542Q51.86875 313.70105 52.05625 314.45105Q52.24375 315.20105 52.24375 316.4823Q52.24375 317.99792 51.93125 318.9198Q51.634377 319.84167 51.009377 320.3573Q50.4 320.8573 49.446877 320.8573Q48.2125 320.8573 47.49375 319.96667Q46.65 318.90417 46.65 316.4823ZM47.728127 316.4823Q47.728127 318.59167 48.228127 319.2948Q48.728127 319.99792 49.446877 319.99792Q50.18125 319.99792 50.665627 319.2948Q51.165627 318.59167 51.165627 316.4823Q51.165627 314.3573 50.665627 313.6698Q50.18125 312.96667 49.43125 312.96667Q48.7125 312.96667 48.275 313.57605Q47.728127 314.3573 47.728127 316.4823ZM53.65 316.4823Q53.65 314.95105 53.9625 314.02917Q54.275 313.09167 54.884377 312.59167Q55.509377 312.09167 56.446877 312.09167Q57.134377 312.09167 57.65 312.37292Q58.18125 312.65417 58.525 313.18542Q58.86875 313.70105 59.05625 314.45105Q59.24375 315.20105 59.24375 316.4823Q59.24375 317.99792 58.93125 318.9198Q58.634377 319.84167 58.009377 320.3573Q57.4 320.8573 56.446877 320.8573Q55.2125 320.8573 54.49375 319.96667Q53.65 318.90417 53.65 316.4823ZM54.728127 316.4823Q54.728127 318.59167 55.228127 319.2948Q55.728127 319.99792 56.446877 319.99792Q57.18125 319.99792 57.665627 319.2948Q58.165627 318.59167 58.165627 316.4823Q58.165627 314.3573 57.665627 313.6698Q57.18125 312.96667 56.43125 312.96667Q55.7125 312.96667 55.275 313.57605Q54.728127 314.3573 54.728127 316.4823Z" fill-rule="nonzero"/><path fill="#000000" d="M36.61875 199.65L35.571877 199.65L35.571877 192.93124Q35.18125 193.29062 34.55625 193.66562Q33.946877 194.025 33.4625 194.19687L33.4625 193.18124Q34.3375 192.75937 34.99375 192.18124Q35.665627 191.5875 35.946877 191.025L36.61875 191.025L36.61875 199.65ZM39.65 197.4L40.759377 197.30624Q40.884377 198.11874 41.321877 198.525Q41.775 198.93124 42.415627 198.93124Q43.165627 198.93124 43.696877 198.35312Q44.228127 197.775 44.228127 196.8375Q44.228127 195.93124 43.7125 195.41562Q43.2125 194.88437 42.384377 194.88437Q41.884377 194.88437 41.4625 195.11874Q41.05625 195.35312 40.821877 195.7125L39.8375 195.5875L40.665627 191.18124L44.946877 191.18124L44.946877 192.18124L41.509377 192.18124L41.05625 194.49374Q41.821877 193.94687 42.665627 193.94687Q43.790627 193.94687 44.55625 194.72812Q45.3375 195.50937 45.3375 196.74374Q45.3375 197.9 44.665627 198.75937Q43.8375 199.79062 42.415627 199.79062Q41.24375 199.79062 40.49375 199.13437Q39.759377 198.47812 39.65 197.4ZM46.65 195.41562Q46.65 193.88437 46.9625 192.9625Q47.275 192.025 47.884377 191.525Q48.509377 191.025 49.446877 191.025Q50.134377 191.025 50.65 191.30624Q51.18125 191.5875 51.525 192.11874Q51.86875 192.63437 52.05625 193.38437Q52.24375 194.13437 52.24375 195.41562Q52.24375 196.93124 51.93125 197.85312Q51.634377 198.775 51.009377 199.29062Q50.4 199.79062 49.446877 199.79062Q48.2125 199.79062 47.49375 198.9Q46.65 197.8375 46.65 195.41562ZM47.728127 195.41562Q47.728127 197.525 48.228127 198.22812Q48.728127 198.93124 49.446877 198.93124Q50.18125 198.93124 50.665627 198.22812Q51.165627 197.525 51.165627 195.41562Q51.165627 193.29062 50.665627 192.60312Q50.18125 191.9 49.43125 191.9Q48.7125 191.9 48.275 192.50937Q47.728127 193.29062 47.728127 195.41562ZM53.65 195.41562Q53.65 193.88437 53.9625 192.9625Q54.275 192.025 54.884377 191.525Q55.509377 191.025 56.446877 191.025Q57.134377 191.025 57.65 191.30624Q58.18125 191.5875 58.525 192.11874Q58.86875 192.63437 59.05625 193.38437Q59.24375 194.13437 59.24375 195.41562Q59.24375 196.93124 58.93125 197.85312Q58.634377 198.775 58.009377 199.29062Q57.4 199.79062 56.446877 199.79062Q55.2125 199.79062 54.49375 198.9Q53.65 197.8375 53.65 195.41562ZM54.728127 195.41562Q54.728127 197.525 55.228127 198.22812Q55.728127 198.93124 56.446877 198.93124Q57.18125 198.93124 57.665627 198.22812Q58.165627 197.525 58.165627 195.41562Q58.165627 193.29062 57.665627 192.60312Q57.18125 191.9 56.43125 191.9Q55.7125 191.9 55.275 192.50937Q54.728127 193.29062 54.728127 195.41562Z" fill-rule="nonzero"/><path fill="#000000" d="M38.196877 77.56771L38.196877 78.583336L32.509377 78.583336Q32.509377 78.208336 32.634377 77.84896Q32.853127 77.270836 33.321877 76.708336Q33.80625 76.145836 34.7125 75.41146Q36.11875 74.25521 36.603127 73.583336Q37.103127 72.91146 37.103127 72.31771Q37.103127 71.69271 36.65 71.270836Q36.196877 70.833336 35.478127 70.833336Q34.7125 70.833336 34.259377 71.28646Q33.80625 71.739586 33.790627 72.552086L32.7125 72.44271Q32.821877 71.22396 33.540627 70.59896Q34.275 69.958336 35.509377 69.958336Q36.74375 69.958336 37.4625 70.645836Q38.18125 71.333336 38.18125 72.34896Q38.18125 72.864586 37.9625 73.364586Q37.759377 73.84896 37.259377 74.41146Q36.775 74.958336 35.65 75.91146Q34.696877 76.708336 34.415627 77.00521Q34.15 77.28646 33.978127 77.56771L38.196877 77.56771ZM39.65 74.34896Q39.65 72.81771 39.9625 71.895836Q40.275 70.958336 40.884377 70.458336Q41.509377 69.958336 42.446877 69.958336Q43.134377 69.958336 43.65 70.239586Q44.18125 70.520836 44.525 71.052086Q44.86875 71.56771 45.05625 72.31771Q45.24375 73.06771 45.24375 74.34896Q45.24375 75.864586 44.93125 76.78646Q44.634377 77.708336 44.009377 78.22396Q43.4 78.72396 42.446877 78.72396Q41.2125 78.72396 40.49375 77.833336Q39.65 76.770836 39.65 74.34896ZM40.728127 74.34896Q40.728127 76.458336 41.228127 77.16146Q41.728127 77.864586 42.446877 77.864586Q43.18125 77.864586 43.665627 77.16146Q44.165627 76.458336 44.165627 74.34896Q44.165627 72.22396 43.665627 71.53646Q43.18125 70.833336 42.43125 70.833336Q41.7125 70.833336 41.275 71.44271Q40.728127 72.22396 40.728127 74.34896ZM46.65 74.34896Q46.65 72.81771 46.9625 71.895836Q47.275 70.958336 47.884377 70.458336Q48.509377 69.958336 49.446877 69.958336Q50.134377 69.958336 50.65 70.239586Q51.18125 70.520836 51.525 71.052086Q51.86875 71.56771 52.05625 72.31771Q52.24375 73.06771 52.24375 74.34896Q52.24375 75.864586 51.93125 76.78646Q51.634377 77.708336 51.009377 78.22396Q50.4 78.72396 49.446877 78.72396Q48.2125 78.72396 47.49375 77.833336Q46.65 76.770836 46.65 74.34896ZM47.728127 74.34896Q47.728127 76.458336 48.228127 77.16146Q48.728127 77.864586 49.446877 77.864586Q50.18125 77.864586 50.665627 77.16146Q51.165627 76.458336 51.165627 74.34896Q51.165627 72.22396 50.665627 71.53646Q50.18125 70.833336 49.43125 70.833336Q48.7125 70.833336 48.275 71.44271Q47.728127 72.22396 47.728127 74.34896ZM53.65 74.34896Q53.65 72.81771 53.9625 71.895836Q54.275 70.958336 54.884377 70.458336Q55.509377 69.958336 56.446877 69.958336Q57.134377 69.958336 57.65 70.239586Q58.18125 70.520836 58.525 71.052086Q58.86875 71.56771 59.05625 72.31771Q59.24375 73.06771 59.24375 74.34896Q59.24375 75.864586 58.93125 76.78646Q58.634377 77.708336 58.009377 78.22396Q57.4 78.72396 56.446877 78.72396Q55.2125 78.72396 54.49375 77.833336Q53.65 76.770836 53.65 74.34896ZM54.728127 74.34896Q54.728127 76.458336 55.228127 77.16146Q55.728127 77.864586 56.446877 77.864586Q57.18125 77.864586 57.665627 77.16146Q58.165627 76.458336 58.165627 74.34896Q58.165627 72.22396 57.665627 71.53646Q57.18125 70.833336 56.43125 70.833336Q55.7125 70.833336 55.275 71.44271Q54.728127 72.22396 54.728127 74.34896Z" fill-rule="nonzero"/><path fill="#000000" d="M143.2442 575.85L142.19733 575.85L142.19733 569.1312Q141.8067 569.4906 141.1817 569.8656Q140.57233 570.225 140.08795 570.39685L140.08795 569.3812Q140.96295 568.95935 141.6192 568.3812Q142.29108 567.7875 142.57233 567.225L143.2442 567.225L143.2442 575.85Z" fill-rule="nonzero"/><path fill="#000000" d="M257.60077 574.83435L257.60077 575.85L251.91327 575.85Q251.91327 575.475 252.03827 575.1156Q252.25702 574.5375 252.72577 573.975Q253.21014 573.4125 254.1164 572.6781Q255.52264 571.52185 256.00702 570.85Q256.50702 570.1781 256.50702 569.58435Q256.50702 568.95935 256.0539 568.5375Q255.60077 568.1 254.88202 568.1Q254.1164 568.1 253.66327 568.5531Q253.21014 569.0062 253.19452 569.8187L252.1164 569.70935Q252.22577 568.4906 252.94452 567.8656Q253.6789 567.225 254.91327 567.225Q256.14764 567.225 256.8664 567.9125Q257.58514 568.6 257.58514 569.6156Q257.58514 570.1312 257.3664 570.6312Q257.16327 571.1156 256.66327 571.6781Q256.1789 572.225 255.0539 573.1781Q254.10077 573.975 253.81952 574.27185Q253.5539 574.5531 253.38202 574.83435L257.60077 574.83435Z" fill-rule="nonzero"/><path fill="#000000" d="M364.83234 573.58435L365.89484 573.4437Q366.0667 574.33435 366.5042 574.7406Q366.9417 575.1312 367.5667 575.1312Q368.3167 575.1312 368.83234 574.6156Q369.34796 574.1 369.34796 573.33435Q369.34796 572.6156 368.8636 572.14685Q368.39484 571.6625 367.66046 571.6625Q367.3636 571.6625 366.91046 571.7875L367.03546 570.85Q367.14484 570.8656 367.20734 570.8656Q367.8792 570.8656 368.41046 570.52185Q368.95734 570.1625 368.95734 569.4281Q368.95734 568.85 368.5667 568.475Q368.1761 568.08435 367.5511 568.08435Q366.9417 568.08435 366.51984 568.475Q366.1136 568.8656 366.0042 569.6312L364.9417 569.4437Q365.1292 568.39685 365.8167 567.8187Q366.5042 567.225 367.51984 567.225Q368.22296 567.225 368.8167 567.5375Q369.41046 567.83435 369.72296 568.35Q370.03546 568.8656 370.03546 569.45935Q370.03546 570.0062 369.7386 570.475Q369.4417 570.9281 368.8636 571.1937Q369.6136 571.3656 370.03546 571.9281Q370.45734 572.475 370.45734 573.3187Q370.45734 574.4437 369.6292 575.225Q368.8167 576.0062 367.5667 576.0062Q366.4417 576.0062 365.6917 575.33435Q364.9417 574.64685 364.83234 573.58435Z" fill-rule="nonzero"/><path fill="#000000" d="M480.98578 575.85L480.98578 573.7875L477.26703 573.7875L477.26703 572.8187L481.1889 567.2562L482.04828 567.2562L482.04828 572.8187L483.20453 572.8187L483.20453 573.7875L482.04828 573.7875L482.04828 575.85L480.98578 575.85ZM480.98578 572.8187L480.98578 568.95935L478.29828 572.8187L480.98578 572.8187Z" fill-rule="nonzero"/><path fill="#000000" d="M590.3892 573.6L591.4986 573.5062Q591.6236 574.3187 592.0611 574.725Q592.5142 575.1312 593.15485 575.1312Q593.90485 575.1312 594.4361 574.5531Q594.96735 573.975 594.96735 573.0375Q594.96735 572.1312 594.4517 571.6156Q593.9517 571.08435 593.1236 571.08435Q592.6236 571.08435 592.2017 571.3187Q591.7955 571.5531 591.5611 571.9125L590.5767 571.7875L591.40485 567.3812L595.6861 567.3812L595.6861 568.3812L592.2486 568.3812L591.7955 570.6937Q592.5611 570.14685 593.40485 570.14685Q594.52985 570.14685 595.2955 570.9281Q596.0767 571.70935 596.0767 572.9437Q596.0767 574.1 595.40485 574.95935Q594.5767 575.9906 593.15485 575.9906Q591.983 575.9906 591.233 575.33435Q590.4986 574.6781 590.3892 573.6Z" fill-rule="nonzero"/><path fill="#000000" d="M708.6364 569.3656L707.58954 569.4437Q707.4489 568.8187 707.1989 568.5375Q706.7614 568.08435 706.1364 568.08435Q705.6364 568.08435 705.2458 568.3656Q704.7614 568.7406 704.46454 569.4437Q704.1833 570.1312 704.16766 571.4125Q704.54266 570.83435 705.08954 570.5531Q705.65204 570.27185 706.2614 570.27185Q707.3083 570.27185 708.04266 571.0531Q708.79266 571.83435 708.79266 573.0531Q708.79266 573.8656 708.4333 574.5687Q708.08954 575.2562 707.48016 575.6312Q706.8708 575.9906 706.10516 575.9906Q704.77704 575.9906 703.9489 575.02185Q703.1208 574.0531 703.1208 571.83435Q703.1208 569.33435 704.04266 568.20935Q704.83954 567.225 706.1989 567.225Q707.21454 567.225 707.85516 567.8031Q708.5114 568.3656 708.6364 569.3656ZM704.33954 573.0687Q704.33954 573.6156 704.5583 574.1156Q704.79266 574.6 705.1989 574.8656Q705.6208 575.1312 706.08954 575.1312Q706.7458 575.1312 707.23016 574.6Q707.71454 574.0531 707.71454 573.1312Q707.71454 572.2406 707.23016 571.725Q706.7614 571.20935 706.04266 571.20935Q705.3239 571.20935 704.8239 571.725Q704.33954 572.2406 704.33954 573.0687Z" fill-rule="nonzero"/><path fill="#000000" d="M816.0086 568.3812L816.0086 567.3656L821.5711 567.3656L821.5711 568.1937Q820.7586 569.0687 819.9461 570.52185Q819.14923 571.95935 818.71173 573.4906Q818.3836 574.5687 818.3055 575.85L817.21173 575.85Q817.22736 574.83435 817.60236 573.39685Q817.993 571.95935 818.6961 570.6312Q819.41486 569.3031 820.22736 568.3812L816.0086 568.3812Z" fill-rule="nonzero"/><path fill="#000000" d="M930.34955 571.1937Q929.6933 570.9437 929.3652 570.5062Q929.0527 570.0531 929.0527 569.4437Q929.0527 568.5062 929.72455 567.8656Q930.41205 567.225 931.5214 567.225Q932.6464 567.225 933.3339 567.8812Q934.0214 568.5375 934.0214 569.475Q934.0214 570.0687 933.7089 570.5062Q933.3964 570.9437 932.7558 571.1937Q933.5527 571.4437 933.9589 572.02185Q934.3652 572.6 934.3652 573.39685Q934.3652 574.4906 933.5839 575.2406Q932.8183 575.9906 931.53705 575.9906Q930.2714 575.9906 929.4902 575.2406Q928.7089 574.4906 928.7089 573.3656Q928.7089 572.52185 929.1308 571.95935Q929.5683 571.39685 930.34955 571.1937ZM930.1308 569.39685Q930.1308 570.0062 930.5214 570.39685Q930.9277 570.7875 931.5527 570.7875Q932.16205 570.7875 932.5527 570.4125Q932.9433 570.02185 932.9433 569.45935Q932.9433 568.8812 932.53705 568.4906Q932.1308 568.08435 931.53705 568.08435Q930.9277 568.08435 930.5214 568.475Q930.1308 568.8656 930.1308 569.39685ZM929.8027 573.3656Q929.8027 573.8187 930.0058 574.2406Q930.22455 574.6625 930.6464 574.89685Q931.0683 575.1312 931.5527 575.1312Q932.3027 575.1312 932.78705 574.64685Q933.28705 574.1625 933.28705 573.4125Q933.28705 572.64685 932.78705 572.14685Q932.28705 571.64685 931.5214 571.64685Q930.7714 571.64685 930.28705 572.14685Q929.8027 572.6312 929.8027 573.3656Z" fill-rule="nonzero"/><path fill="#4285f4" d="M398.5 34.15C398.5 33.597713 398.94772 33.15 399.5 33.15L409.5 33.15C410.05228 33.15 410.5 33.597713 410.5 34.15L410.5 44.15C410.5 44.702286 410.05228 45.15 409.5 45.15L399.5 45.15C398.94772 45.15 398.5 44.702286 398.5 44.15Z" fill-rule="nonzero"/><path fill="#1a1a1a" d="M419.45312 43.15L419.45312 34.55625L425.65625 34.55625L425.65625 35.571877L420.59375 35.571877L420.59375 38.196877L425.34375 38.196877L425.34375 39.2125L420.59375 39.2125L420.59375 42.134377L425.85938 42.134377L425.85938 43.15L419.45312 43.15ZM427.29688 43.15L427.29688 36.93125L428.23438 36.93125L428.23438 37.80625Q428.92188 36.790627 430.21875 36.790627Q430.78125 36.790627 431.25 36.99375Q431.73438 37.196877 431.96875 37.525Q432.20312 37.853127 432.29688 38.290627Q432.34375 38.5875 432.34375 39.321877L432.34375 43.15L431.29688 43.15L431.29688 39.36875Q431.29688 38.7125 431.17188 38.4Q431.04688 38.0875 430.73438 37.9Q430.42188 37.696877 430.0 37.696877Q429.32812 37.696877 428.82812 38.134377Q428.34375 38.55625 428.34375 39.74375L428.34375 43.15L427.29688 43.15ZM434.09375 43.665627L435.125 43.821877Q435.1875 44.290627 435.48438 44.509377Q435.875 44.80625 436.54688 44.80625Q437.28125 44.80625 437.67188 44.509377Q438.07812 44.2125 438.21875 43.696877Q438.3125 43.36875 438.29688 42.3375Q437.60938 43.15 436.57812 43.15Q435.29688 43.15 434.59375 42.228127Q433.89062 41.290627 433.89062 40.009377Q433.89062 39.11875 434.20312 38.36875Q434.53125 37.603127 435.14062 37.196877Q435.75 36.790627 436.57812 36.790627Q437.6875 36.790627 438.40625 37.68125L438.40625 36.93125L439.375 36.93125L439.375 42.30625Q439.375 43.759377 439.07812 44.36875Q438.78125 44.978127 438.14062 45.321877Q437.5 45.68125 436.5625 45.68125Q435.45312 45.68125 434.76562 45.18125Q434.07812 44.68125 434.09375 43.665627ZM434.96875 39.93125Q434.96875 41.15 435.45312 41.7125Q435.9375 42.275 436.67188 42.275Q437.40625 42.275 437.89062 41.7125Q438.39062 41.15 438.39062 39.9625Q438.39062 38.821877 437.875 38.24375Q437.375 37.665627 436.65625 37.665627Q435.95312 37.665627 435.45312 38.24375Q434.96875 38.80625 434.96875 39.93125ZM441.29688 35.775L441.29688 34.55625L442.35938 34.55625L442.35938 35.775L441.29688 35.775ZM441.29688 43.15L441.29688 36.93125L442.35938 36.93125L442.35938 43.15L441.29688 43.15ZM444.29688 43.15L444.29688 36.93125L445.23438 36.93125L445.23438 37.80625Q445.92188 36.790627 447.21875 36.790627Q447.78125 36.790627 448.25 36.99375Q448.73438 37.196877 448.96875 37.525Q449.20312 37.853127 449.29688 38.290627Q449.34375 38.5875 449.34375 39.321877L449.34375 43.15L448.29688 43.15L448.29688 39.36875Q448.29688 38.7125 448.17188 38.4Q448.04688 38.0875 447.73438 37.9Q447.42188 37.696877 447.0 37.696877Q446.32812 37.696877 445.82812 38.134377Q445.34375 38.55625 445.34375 39.74375L445.34375 43.15L444.29688 43.15ZM455.54688 41.15L456.64062 41.275Q456.39062 42.228127 455.6875 42.759377Q454.98438 43.290627 453.90625 43.290627Q452.54688 43.290627 451.73438 42.446877Q450.9375 41.603127 450.9375 40.0875Q450.9375 38.525 451.75 37.665627Q452.5625 36.790627 453.84375 36.790627Q455.09375 36.790627 455.875 37.634377Q456.67188 38.478127 456.67188 40.025Q456.67188 40.11875 456.67188 40.30625L452.03125 40.30625Q452.09375 41.3375 452.60938 41.884377Q453.125 42.415627 453.90625 42.415627Q454.48438 42.415627 454.89062 42.11875Q455.3125 41.80625 455.54688 41.15ZM452.09375 39.446877L455.5625 39.446877Q455.5 38.65 455.17188 38.259377Q454.65625 37.65 453.85938 37.65Q453.125 37.65 452.625 38.134377Q452.14062 38.61875 452.09375 39.446877ZM462.54688 41.15L463.64062 41.275Q463.39062 42.228127 462.6875 42.759377Q461.98438 43.290627 460.90625 43.290627Q459.54688 43.290627 458.73438 42.446877Q457.9375 41.603127 457.9375 40.0875Q457.9375 38.525 458.75 37.665627Q459.5625 36.790627 460.84375 36.790627Q462.09375 36.790627 462.875 37.634377Q463.67188 38.478127 463.67188 40.025Q463.67188 40.11875 463.67188 40.30625L459.03125 40.30625Q459.09375 41.3375 459.60938 41.884377Q460.125 42.415627 460.90625 42.415627Q461.48438 42.415627 461.89062 42.11875Q462.3125 41.80625 462.54688 41.15ZM459.09375 39.446877L462.5625 39.446877Q462.5 38.65 462.17188 38.259377Q461.65625 37.65 460.85938 37.65Q460.125 37.65 459.625 38.134377Q459.14062 38.61875 459.09375 39.446877ZM465.28125 43.15L465.28125 36.93125L466.23438 36.93125L466.23438 37.86875Q466.59375 37.2125 466.89062 37.009377Q467.20312 36.790627 467.57812 36.790627Q468.10938 36.790627 468.65625 37.11875L468.29688 38.103127Q467.90625 37.86875 467.53125 37.86875Q467.17188 37.86875 466.89062 38.0875Q466.625 38.290627 466.51562 38.665627Q466.32812 39.228127 466.32812 39.884377L466.32812 43.15L465.28125 43.15ZM468.875 41.290627L469.90625 41.134377Q470.0 41.759377 470.39062 42.0875Q470.79688 42.415627 471.53125 42.415627Q472.25 42.415627 472.59375 42.134377Q472.95312 41.8375 472.95312 41.43125Q472.95312 41.071877 472.64062 40.86875Q472.42188 40.728127 471.5625 40.509377Q470.40625 40.2125 469.95312 40.009377Q469.51562 39.790627 469.28125 39.415627Q469.04688 39.040627 469.04688 38.571877Q469.04688 38.165627 469.23438 37.80625Q469.42188 37.446877 469.75 37.2125Q470.0 37.040627 470.42188 36.915627Q470.84375 36.790627 471.34375 36.790627Q472.0625 36.790627 472.60938 37.009377Q473.17188 37.2125 473.4375 37.571877Q473.70312 37.93125 473.79688 38.525L472.76562 38.665627Q472.70312 38.196877 472.35938 37.93125Q472.03125 37.65 471.40625 37.65Q470.6875 37.65 470.375 37.9Q470.0625 38.134377 470.0625 38.4625Q470.0625 38.665627 470.1875 38.821877Q470.32812 38.99375 470.59375 39.103127Q470.75 39.165627 471.53125 39.36875Q472.65625 39.68125 473.09375 39.86875Q473.53125 40.05625 473.78125 40.415627Q474.03125 40.775 474.03125 41.321877Q474.03125 41.853127 473.71875 42.321877Q473.42188 42.775 472.84375 43.040627Q472.26562 43.290627 471.53125 43.290627Q470.3125 43.290627 469.67188 42.790627Q469.04688 42.275 468.875 41.290627Z" fill-rule="nonzero"/><path fill="#fbbc04" d="M491.5 34.15C491.5 33.597713 491.94772 33.15 492.5 33.15L502.5 33.15C503.05228 33.15 503.5 33.597713 503.5 34.15L503.5 44.15C503.5 44.702286 503.05228 45.15 502.5 45.15L492.5 45.15C491.94772 45.15 491.5 44.702286 491.5 44.15Z" fill-rule="nonzero"/><path fill="#1a1a1a" d="M512.4219 43.15L512.4219 34.55625L515.6719 34.55625Q516.5156 34.55625 516.96875 34.634377Q517.6094 34.74375 518.03125 35.040627Q518.46875 35.3375 518.71875 35.86875Q518.9844 36.4 518.9844 37.040627Q518.9844 38.134377 518.28125 38.9Q517.59375 39.65 515.7656 39.65L513.5625 39.65L513.5625 43.15L512.4219 43.15ZM513.5625 38.65L515.78125 38.65Q516.8906 38.65 517.34375 38.24375Q517.8125 37.821877 517.8125 37.071877Q517.8125 36.540627 517.53125 36.165627Q517.2656 35.775 516.8281 35.65Q516.53125 35.571877 515.7656 35.571877L513.5625 35.571877L513.5625 38.65ZM520.28125 43.15L520.28125 36.93125L521.2344 36.93125L521.2344 37.86875Q521.59375 37.2125 521.8906 37.009377Q522.2031 36.790627 522.5781 36.790627Q523.1094 36.790627 523.65625 37.11875L523.2969 38.103127Q522.90625 37.86875 522.53125 37.86875Q522.1719 37.86875 521.8906 38.0875Q521.625 38.290627 521.5156 38.665627Q521.3281 39.228127 521.3281 39.884377L521.3281 43.15L520.28125 43.15ZM523.90625 40.040627Q523.90625 38.30625 524.8594 37.478127Q525.65625 36.790627 526.8125 36.790627Q528.09375 36.790627 528.90625 37.634377Q529.7344 38.4625 529.7344 39.946877Q529.7344 41.15 529.375 41.8375Q529.0156 42.525 528.3125 42.915627Q527.625 43.290627 526.8125 43.290627Q525.5156 43.290627 524.7031 42.4625Q523.90625 41.61875 523.90625 40.040627ZM524.9844 40.040627Q524.9844 41.228127 525.5 41.821877Q526.03125 42.415627 526.8125 42.415627Q527.6094 42.415627 528.125 41.821877Q528.6406 41.228127 528.6406 40.009377Q528.6406 38.853127 528.1094 38.259377Q527.59375 37.665627 526.8125 37.665627Q526.03125 37.665627 525.5 38.259377Q524.9844 38.8375 524.9844 40.040627ZM535.3281 43.15L535.3281 42.36875Q534.7344 43.290627 533.59375 43.290627Q532.84375 43.290627 532.21875 42.884377Q531.59375 42.4625 531.25 41.728127Q530.90625 40.99375 530.90625 40.040627Q530.90625 39.11875 531.21875 38.353127Q531.53125 37.5875 532.15625 37.196877Q532.78125 36.790627 533.5469 36.790627Q534.1094 36.790627 534.5469 37.025Q534.9844 37.259377 535.2656 37.634377L535.2656 34.55625L536.3125 34.55625L536.3125 43.15L535.3281 43.15ZM532.0 40.040627Q532.0 41.24375 532.5 41.8375Q533.0 42.415627 533.6875 42.415627Q534.375 42.415627 534.8594 41.853127Q535.34375 41.290627 535.34375 40.134377Q535.34375 38.853127 534.84375 38.259377Q534.3594 37.665627 533.6406 37.665627Q532.9375 37.665627 532.46875 38.24375Q532.0 38.80625 532.0 40.040627ZM542.375 43.15L542.375 42.228127Q541.6406 43.290627 540.3906 43.290627Q539.84375 43.290627 539.3594 43.0875Q538.8906 42.86875 538.65625 42.55625Q538.4219 42.228127 538.3281 41.759377Q538.2656 41.4625 538.2656 40.775L538.2656 36.93125L539.3281 36.93125L539.3281 40.384377Q539.3281 41.196877 539.3906 41.49375Q539.4844 41.9 539.7969 42.15Q540.125 42.384377 540.6094 42.384377Q541.0781 42.384377 541.4844 42.15Q541.90625 41.9 542.0781 41.478127Q542.2656 41.05625 542.2656 40.259377L542.2656 36.93125L543.3125 36.93125L543.3125 43.15L542.375 43.15ZM549.3594 40.86875L550.3906 41.009377Q550.21875 42.071877 549.5156 42.68125Q548.8125 43.290627 547.7969 43.290627Q546.5156 43.290627 545.7344 42.4625Q544.96875 41.61875 544.96875 40.05625Q544.96875 39.05625 545.2969 38.30625Q545.6406 37.540627 546.3125 37.165627Q547.0 36.790627 547.8125 36.790627Q548.8125 36.790627 549.4531 37.30625Q550.1094 37.80625 550.2969 38.759377L549.2656 38.915627Q549.125 38.290627 548.75 37.978127Q548.375 37.65 547.84375 37.65Q547.0469 37.65 546.5469 38.228127Q546.0469 38.790627 546.0469 40.025Q546.0469 41.290627 546.53125 41.853127Q547.0156 42.415627 547.78125 42.415627Q548.40625 42.415627 548.8125 42.040627Q549.2344 41.665627 549.3594 40.86875ZM553.59375 42.2125L553.75 43.134377Q553.2969 43.228127 552.9531 43.228127Q552.375 43.228127 552.0625 43.05625Q551.75 42.86875 551.6094 42.571877Q551.4844 42.275 551.4844 41.321877L551.4844 37.74375L550.71875 37.74375L550.71875 36.93125L551.4844 36.93125L551.4844 35.384377L552.53125 34.759377L552.53125 36.93125L553.59375 36.93125L553.59375 37.74375L552.53125 37.74375L552.53125 41.384377Q552.53125 41.8375 552.5781 41.9625Q552.6406 42.0875 552.7656 42.165627Q552.8906 42.24375 553.125 42.24375Q553.3125 42.24375 553.59375 42.2125ZM557.0469 40.384377L558.1094 40.290627Q558.1875 40.946877 558.46875 41.353127Q558.75 41.759377 559.3281 42.025Q559.9219 42.275 560.65625 42.275Q561.2969 42.275 561.7969 42.0875Q562.2969 41.884377 562.53125 41.55625Q562.78125 41.2125 562.78125 40.821877Q562.78125 40.415627 562.5469 40.11875Q562.3125 39.80625 561.78125 39.603127Q561.4219 39.4625 560.2344 39.18125Q559.0625 38.9 558.59375 38.65Q557.96875 38.321877 557.6719 37.853127Q557.375 37.36875 557.375 36.775Q557.375 36.134377 557.7344 35.571877Q558.1094 34.99375 558.8125 34.7125Q559.53125 34.415627 560.3906 34.415627Q561.34375 34.415627 562.0781 34.728127Q562.8125 35.025 563.2031 35.634377Q563.59375 36.228127 563.625 36.978127L562.53125 37.05625Q562.4375 36.24375 561.9219 35.8375Q561.4219 35.415627 560.4375 35.415627Q559.40625 35.415627 558.9375 35.790627Q558.46875 36.165627 558.46875 36.696877Q558.46875 37.165627 558.7969 37.4625Q559.125 37.759377 560.5 38.071877Q561.8906 38.384377 562.40625 38.61875Q563.15625 38.978127 563.5156 39.509377Q563.875 40.025 563.875 40.728127Q563.875 41.415627 563.4844 42.025Q563.09375 42.61875 562.3594 42.9625Q561.625 43.290627 560.7031 43.290627Q559.53125 43.290627 558.7344 42.9625Q557.9531 42.61875 557.5 41.93125Q557.0625 41.24375 557.0469 40.384377ZM565.2969 35.775L565.2969 34.55625L566.3594 34.55625L566.3594 35.775L565.2969 35.775ZM565.2969 43.15L565.2969 36.93125L566.3594 36.93125L566.3594 43.15L565.2969 43.15ZM567.7344 43.15L567.7344 42.290627L571.7031 37.74375Q571.0156 37.775 570.5 37.775L567.96875 37.775L567.96875 36.93125L573.0625 36.93125L573.0625 37.61875L569.6875 41.571877L569.03125 42.290627Q569.75 42.24375 570.3594 42.24375L573.25 42.24375L573.25 43.15L567.7344 43.15ZM577.5469 41.15L578.6406 41.275Q578.3906 42.228127 577.6875 42.759377Q576.9844 43.290627 575.90625 43.290627Q574.5469 43.290627 573.7344 42.446877Q572.9375 41.603127 572.9375 40.0875Q572.9375 38.525 573.75 37.665627Q574.5625 36.790627 575.84375 36.790627Q577.09375 36.790627 577.875 37.634377Q578.6719 38.478127 578.6719 40.025Q578.6719 40.11875 578.6719 40.30625L574.03125 40.30625Q574.09375 41.3375 574.6094 41.884377Q575.125 42.415627 575.90625 42.415627Q576.4844 42.415627 576.8906 42.11875Q577.3125 41.80625 577.5469 41.15ZM574.09375 39.446877L577.5625 39.446877Q577.5 38.65 577.1719 38.259377Q576.65625 37.65 575.8594 37.65Q575.125 37.65 574.625 38.134377Q574.1406 38.61875 574.09375 39.446877Z" fill-rule="nonzero"/><path stroke="#ea4335" stroke-width="4.0" stroke-linecap="butt" d="M595.5 39.15L607.5 39.15" fill-rule="nonzero"/><path fill="#1a1a1a" d="M622.5625 40.134377L623.6875 40.43125Q623.3281 41.821877 622.40625 42.55625Q621.4844 43.290627 620.1406 43.290627Q618.75 43.290627 617.875 42.728127Q617.0 42.165627 616.5469 41.103127Q616.09375 40.025 616.09375 38.790627Q616.09375 37.446877 616.6094 36.446877Q617.125 35.446877 618.0625 34.93125Q619.0156 34.415627 620.15625 34.415627Q621.4375 34.415627 622.3125 35.071877Q623.2031 35.728127 623.5469 36.915627L622.4219 37.18125Q622.125 36.24375 621.5469 35.821877Q620.9844 35.384377 620.125 35.384377Q619.1406 35.384377 618.46875 35.86875Q617.8125 36.3375 617.53125 37.134377Q617.2656 37.93125 617.2656 38.790627Q617.2656 39.884377 617.5781 40.696877Q617.90625 41.509377 618.5781 41.915627Q619.25 42.321877 620.0469 42.321877Q621.0 42.321877 621.65625 41.775Q622.3281 41.228127 622.5625 40.134377ZM624.90625 40.040627Q624.90625 38.30625 625.8594 37.478127Q626.65625 36.790627 627.8125 36.790627Q629.09375 36.790627 629.90625 37.634377Q630.7344 38.4625 630.7344 39.946877Q630.7344 41.15 630.375 41.8375Q630.0156 42.525 629.3125 42.915627Q628.625 43.290627 627.8125 43.290627Q626.5156 43.290627 625.7031 42.4625Q624.90625 41.61875 624.90625 40.040627ZM625.9844 40.040627Q625.9844 41.228127 626.5 41.821877Q627.03125 42.415627 627.8125 42.415627Q628.6094 42.415627 629.125 41.821877Q629.6406 41.228127 629.6406 40.009377Q629.6406 38.853127 629.1094 38.259377Q628.59375 37.665627 627.8125 37.665627Q627.03125 37.665627 626.5 38.259377Q625.9844 38.8375 625.9844 40.040627ZM631.875 41.290627L632.90625 41.134377Q633.0 41.759377 633.3906 42.0875Q633.7969 42.415627 634.53125 42.415627Q635.25 42.415627 635.59375 42.134377Q635.9531 41.8375 635.9531 41.43125Q635.9531 41.071877 635.6406 40.86875Q635.4219 40.728127 634.5625 40.509377Q633.40625 40.2125 632.9531 40.009377Q632.5156 39.790627 632.28125 39.415627Q632.0469 39.040627 632.0469 38.571877Q632.0469 38.165627 632.2344 37.80625Q632.4219 37.446877 632.75 37.2125Q633.0 37.040627 633.4219 36.915627Q633.84375 36.790627 634.34375 36.790627Q635.0625 36.790627 635.6094 37.009377Q636.1719 37.2125 636.4375 37.571877Q636.7031 37.93125 636.7969 38.525L635.7656 38.665627Q635.7031 38.196877 635.3594 37.93125Q635.03125 37.65 634.40625 37.65Q633.6875 37.65 633.375 37.9Q633.0625 38.134377 633.0625 38.4625Q633.0625 38.665627 633.1875 38.821877Q633.3281 38.99375 633.59375 39.103127Q633.75 39.165627 634.53125 39.36875Q635.65625 39.68125 636.09375 39.86875Q636.53125 40.05625 636.78125 40.415627Q637.03125 40.775 637.03125 41.321877Q637.03125 41.853127 636.71875 42.321877Q636.4219 42.775 635.84375 43.040627Q635.2656 43.290627 634.53125 43.290627Q633.3125 43.290627 632.6719 42.790627Q632.0469 42.275 631.875 41.290627ZM641.59375 42.2125L641.75 43.134377Q641.2969 43.228127 640.9531 43.228127Q640.375 43.228127 640.0625 43.05625Q639.75 42.86875 639.6094 42.571877Q639.4844 42.275 639.4844 41.321877L639.4844 37.74375L638.71875 37.74375L638.71875 36.93125L639.4844 36.93125L639.4844 35.384377L640.53125 34.759377L640.53125 36.93125L641.59375 36.93125L641.59375 37.74375L640.53125 37.74375L640.53125 41.384377Q640.53125 41.8375 640.5781 41.9625Q640.6406 42.0875 640.7656 42.165627Q640.8906 42.24375 641.125 42.24375Q641.3125 42.24375 641.59375 42.2125Z" fill-rule="nonzero"/></svg>